<svg xmlns="http://www.w3.org/2000/svg" xmlns:xlink="http://www.w3.org/1999/xlink" fill="white" version="1.1" x="0px" y="0px" viewBox="0 0 90 112.5" enable-background="new 0 0 90 90" xml:space="preserve"><path d="M11.085,11.474c-2.916,0-5.265,2.328-5.265,5.224v6.178c0,2.896,2.349,5.229,5.265,5.229h68.072  c2.921,0,5.271-2.333,5.271-5.229v-6.178c0-2.896-2.35-5.224-5.271-5.224H11.085z"/><path d="M11.085,36.724c-2.916,0-5.265,2.33-5.265,5.224v6.178c0,2.896,2.349,5.229,5.265,5.229h68.072  c2.921,0,5.271-2.333,5.271-5.229v-6.178c0-2.895-2.35-5.224-5.271-5.224H11.085z"/><path d="M11.085,61.974c-2.916,0-5.265,2.328-5.265,5.224v6.178c0,2.896,2.349,5.229,5.265,5.229h68.072  c2.921,0,5.271-2.333,5.271-5.229v-6.178c0-2.896-2.35-5.224-5.271-5.224H11.085z"/></svg>